# Hierarchical Translation and Rotation (.htr) file
# Generated by EVaRT
[Header]
FileType htr
DataType HTRS
FileVersion 1
NumSegments 23
NumFrames 5
DataFrameRate 120
EulerRotationOrder ZYX
CalibrationUnits mm
RotationUnits Degrees
GlobalAxisofGravity Y
BoneLengthAxis Y
ScaleFactor 1
[SegmentNames&Hierarchy]
#CHILD            PARENT
DaveRoot          GLOBAL
Spine1            DaveRoot
Spine2            Spine1
Spine3            Spine2
Spine4            Spine3
Neck              Spine4
Head              Neck
LClavicle         Spine4
LUpperArm         LClavicle
LLowerArm         LUpperArm
LHand             LLowerArm
RClavicle         Spine4
RUpperArm         RClavicle
RLowerArm         RUpperArm
RHand             RLowerArm
RUpperLeg         DaveRoot
RLowerLeg         RUpperLeg
RFoot             RLowerLeg
RToes             RFoot
LUpperLeg         DaveRoot
LLowerLeg         LUpperLeg
LFoot             LLowerLeg
LToes             LFoot
[BasePosition]
#SegmentName      Tx   Ty   Tz   Rx   Ry   Rz   BoneLength
DaveRoot          209.518790	1014.822220	-351.309218	15.931515	2.618173	-0.612188	100.000000
Spine1            0.000000	100.000000	0.000000	-16.793488	0.293500	-0.473802	100.000000
Spine2            0.000000	100.000000	0.000000	4.672625	0.349043	-0.357343	100.000000
Spine3            0.000000	100.000000	0.000000	10.998894	0.386292	-0.316706	100.000000
Spine4            0.000000	100.000000	0.000000	12.138707	1.462162	1.217268	100.000000
Neck              0.000000	100.000000	0.000000	12.810480	14.955418	1.620949	80.000000
Head              0.000000	80.000000	0.000000	-44.031424	-2.973179	-2.367844	200.000000
LClavicle         0.000000	100.000000	0.000000	-0.941684	-2.086145	-99.536471	200.000000
LUpperArm         0.000000	200.000000	0.000000	10.837043	12.737179	14.309854	300.000000
LLowerArm         0.000000	300.000000	0.000000	2.090205	2.175812	1.895763	200.000000
LHand             0.000000	200.000000	0.000000	-1.396534	-1.768569	8.793625	120.000000
RClavicle         0.000000	100.000000	0.000000	1.262055	-3.879913	108.124298	200.000000
RUpperArm         0.000000	200.000000	0.000000	10.866823	4.985308	-18.992585	300.000000
RLowerArm         0.000000	300.000000	0.000000	5.968673	-3.682026	-7.348670	200.000000
RHand             0.000000	200.000000	0.000000	-1.057110	-1.690862	-7.465634	120.000000
RUpperLeg         -115.911102	-10.000000	31.058285	24.909801	27.531946	-169.439912	530.000000
RLowerLeg         0.000000	530.000000	0.000000	-7.321572	0.479387	-2.520024	460.000000
RFoot             0.000000	460.000000	0.000000	82.352420	-1.863170	1.930421	130.000000
RToes             0.000000	130.000000	0.000000	17.737744	0.005479	-0.002881	100.000000
LUpperLeg         115.911102	-10.000000	31.058285	23.717246	9.590578	-171.144790	530.000000
LLowerLeg         0.000000	530.000000	0.000000	-5.150575	-3.275937	3.046484	460.000000
LFoot             0.000000	460.000000	0.000000	77.933010	-13.262104	9.769004	130.000000
LToes             0.000000	130.000000	0.000000	27.000770	-0.000000	-0.000086	100.000000
#Beginning of Data.
[DaveRoot]
#Fr	Tx	Ty	Tz	Rx	Ry	Rz	SF
180	-6.004954	1.546209	44.738080	0.612719	1.465700	-0.070071	1.000000	
181	-6.140349	1.507226	45.475976	0.578282	1.427971	-0.055359	1.000000	
182	-6.321707	1.440035	46.158416	0.560342	1.376896	-0.044288	1.000000	
183	-6.558359	1.340649	46.810957	0.557726	1.318725	-0.040669	1.000000	
184	-6.840047	1.213338	47.466464	0.565651	1.259018	-0.046053	1.000000	
[Spine1]
#Fr	Tx	Ty	Tz	Rx	Ry	Rz	SF
180	0.000000	0.000000	0.000000	0.124620	0.184885	-0.383890	1.000000	
181	0.000000	0.000000	0.000000	0.119118	0.207994	-0.384690	1.000000	
182	0.000000	0.000000	0.000000	0.102725	0.235426	-0.386089	1.000000	
183	0.000000	0.000000	0.000000	0.075001	0.263404	-0.387828	1.000000	
184	0.000000	0.000000	0.000000	0.037886	0.288652	-0.389204	1.000000	
[Spine2]
#Fr	Tx	Ty	Tz	Rx	Ry	Rz	SF
180	0.000000	0.000000	0.000000	0.124620	0.184885	-0.383890	1.000000	
181	0.000000	0.000000	0.000000	0.119118	0.207994	-0.384690	1.000000	
182	0.000000	0.000000	0.000000	0.102725	0.235426	-0.386089	1.000000	
183	0.000000	0.000000	0.000000	0.075001	0.263404	-0.387828	1.000000	
184	0.000000	0.000000	0.000000	0.037886	0.288652	-0.389204	1.000000	
[Spine3]
#Fr	Tx	Ty	Tz	Rx	Ry	Rz	SF
180	0.000000	0.000000	0.000000	0.124620	0.184885	-0.383890	1.000000	
181	0.000000	0.000000	0.000000	0.119118	0.207994	-0.384690	1.000000	
182	0.000000	0.000000	0.000000	0.102725	0.235426	-0.386089	1.000000	
183	0.000000	0.000000	0.000000	0.075001	0.263404	-0.387828	1.000000	
184	0.000000	0.000000	0.000000	0.037886	0.288652	-0.389204	1.000000	
[Spine4]
#Fr	Tx	Ty	Tz	Rx	Ry	Rz	SF
180	0.000000	0.000000	0.000000	0.124620	0.184885	-0.383890	1.000000	
181	0.000000	0.000000	0.000000	0.119118	0.207994	-0.384690	1.000000	
182	0.000000	0.000000	0.000000	0.102725	0.235426	-0.386089	1.000000	
183	0.000000	0.000000	0.000000	0.075001	0.263404	-0.387828	1.000000	
184	0.000000	0.000000	0.000000	0.037886	0.288652	-0.389204	1.000000	
[Neck]
#Fr	Tx	Ty	Tz	Rx	Ry	Rz	SF
180	0.000000	0.000000	0.000000	0.122188	0.469121	0.467948	1.000000	
181	0.000000	0.000000	0.000000	0.212009	0.342853	0.492928	1.000000	
182	0.000000	0.000000	0.000000	0.323201	0.205606	0.535098	1.000000	
183	0.000000	0.000000	0.000000	0.455215	0.067600	0.594563	1.000000	
184	0.000000	0.000000	0.000000	0.604474	-0.064324	0.668073	1.000000	
[Head]
#Fr	Tx	Ty	Tz	Rx	Ry	Rz	SF
180	0.000000	0.000000	0.000000	0.122188	0.469121	0.467948	1.000000	
181	0.000000	0.000000	0.000000	0.212009	0.342853	0.492928	1.000000	
182	0.000000	0.000000	0.000000	0.323201	0.205606	0.535098	1.000000	
183	0.000000	0.000000	0.000000	0.455215	0.067600	0.594563	1.000000	
184	0.000000	0.000000	0.000000	0.604474	-0.064324	0.668073	1.000000	
[LClavicle]
#Fr	Tx	Ty	Tz	Rx	Ry	Rz	SF
180	0.000000	0.000000	0.000000	1.209128	0.105868	-9.920993	1.000000	
181	0.000000	0.000000	0.000000	1.324458	0.127568	-10.418450	1.000000	
182	0.000000	0.000000	0.000000	1.475067	0.155443	-10.932186	1.000000	
183	0.000000	0.000000	0.000000	1.649823	0.188747	-11.442553	1.000000	
184	0.000000	0.000000	0.000000	1.839620	0.226407	-11.931724	1.000000	
[LUpperArm]
#Fr	Tx	Ty	Tz	Rx	Ry	Rz	SF
180	0.000000	0.000000	0.000000	14.024034	1.444302	-47.195306	1.000000	
181	0.000000	0.000000	0.000000	14.800509	3.974754	-47.462512	1.000000	
182	0.000000	0.000000	0.000000	15.503284	6.450177	-47.728064	1.000000	
183	0.000000	0.000000	0.000000	16.129038	8.878335	-48.020817	1.000000	
184	0.000000	0.000000	0.000000	16.676802	11.247600	-48.373840	1.000000	
[LLowerArm]
#Fr	Tx	Ty	Tz	Rx	Ry	Rz	SF
180	0.000000	0.000000	0.000000	20.633887	-0.000000	0.000000	1.000000	
181	0.000000	0.000000	0.000000	18.572036	-0.000000	0.000000	1.000000	
182	0.000000	0.000000	0.000000	16.577404	-0.000000	0.000000	1.000000	
183	0.000000	0.000000	0.000000	14.676204	-0.000000	0.000000	1.000000	
184	0.000000	0.000000	0.000000	12.899890	-0.000000	0.000000	1.000000	
[LHand]
#Fr	Tx	Ty	Tz	Rx	Ry	Rz	SF
180	0.000000	0.000000	0.000000	9.671127	0.000000	-0.000000	1.000000	
181	0.000000	0.000000	0.000000	10.069572	0.000000	-0.000000	1.000000	
182	0.000000	0.000000	0.000000	10.385519	0.000000	-0.000000	1.000000	
183	0.000000	0.000000	0.000000	10.595353	0.000000	-0.000000	1.000000	
184	0.000000	0.000000	0.000000	10.684501	0.000000	-0.000000	1.000000	
[RClavicle]
#Fr	Tx	Ty	Tz	Rx	Ry	Rz	SF
180	0.000000	0.000000	0.000000	0.140380	-0.008720	3.229130	1.000000	
181	0.000000	0.000000	0.000000	0.156611	-0.009958	3.312941	1.000000	
182	0.000000	0.000000	0.000000	0.148435	-0.009808	3.455160	1.000000	
183	0.000000	0.000000	0.000000	0.131758	-0.009148	3.646424	1.000000	
184	0.000000	0.000000	0.000000	0.122913	-0.009007	3.865720	1.000000	
[RUpperArm]
#Fr	Tx	Ty	Tz	Rx	Ry	Rz	SF
180	0.000000	0.000000	0.000000	0.967737	-6.028335	53.829323	1.000000	
181	0.000000	0.000000	0.000000	1.564566	-7.629336	55.181269	1.000000	
182	0.000000	0.000000	0.000000	2.189185	-9.289186	56.438801	1.000000	
183	0.000000	0.000000	0.000000	2.810482	-11.031595	57.604814	1.000000	
184	0.000000	0.000000	0.000000	3.398607	-12.857802	58.696763	1.000000	
[RLowerArm]
#Fr	Tx	Ty	Tz	Rx	Ry	Rz	SF
180	0.000000	0.000000	0.000000	24.981353	-0.000000	-0.000000	1.000000	
181	0.000000	0.000000	0.000000	23.739098	-0.000000	-0.000000	1.000000	
182	0.000000	0.000000	0.000000	22.429348	-0.000000	-0.000000	1.000000	
183	0.000000	0.000000	0.000000	21.099373	-0.000000	-0.000000	1.000000	
184	0.000000	0.000000	0.000000	19.797859	-0.000000	-0.000000	1.000000	
[RHand]
#Fr	Tx	Ty	Tz	Rx	Ry	Rz	SF
180	0.000000	0.000000	0.000000	8.659865	-9.866289	-7.905589	1.000000	
181	0.000000	0.000000	0.000000	8.545203	-9.353119	-7.133139	1.000000	
182	0.000000	0.000000	0.000000	8.440310	-8.684591	-6.281386	1.000000	
183	0.000000	0.000000	0.000000	8.298843	-7.858559	-5.346732	1.000000	
184	0.000000	0.000000	0.000000	8.090607	-6.900453	-4.333184	1.000000	
[RUpperLeg]
#Fr	Tx	Ty	Tz	Rx	Ry	Rz	SF
180	0.000000	0.000000	0.000000	-1.646302	-0.372532	-0.939893	1.000000	
181	0.000000	0.000000	0.000000	-1.667685	-0.318352	-0.979940	1.000000	
182	0.000000	0.000000	0.000000	-1.659140	-0.309865	-0.996956	1.000000	
183	0.000000	0.000000	0.000000	-1.628884	-0.348255	-0.989611	1.000000	
184	0.000000	0.000000	0.000000	-1.590530	-0.422310	-0.962492	1.000000	
[RLowerLeg]
#Fr	Tx	Ty	Tz	Rx	Ry	Rz	SF
180	0.000000	0.000000	0.000000	-0.558810	-0.000000	-0.000000	1.000000	
181	0.000000	0.000000	0.000000	-0.662632	0.000000	-0.000000	1.000000	
182	0.000000	0.000000	0.000000	-0.804067	-0.000000	-0.000000	1.000000	
183	0.000000	0.000000	0.000000	-0.973860	0.000000	-0.000000	1.000000	
184	0.000000	0.000000	0.000000	-1.154924	-0.000000	-0.000000	1.000000	
[RFoot]
#Fr	Tx	Ty	Tz	Rx	Ry	Rz	SF
180	0.000000	0.000000	0.000000	3.016718	0.671257	-1.586401	1.000000	
181	0.000000	0.000000	0.000000	3.197566	0.967324	-1.412544	1.000000	
182	0.000000	0.000000	0.000000	3.423748	1.358072	-1.243153	1.000000	
183	0.000000	0.000000	0.000000	3.686255	1.819204	-1.092639	1.000000	
184	0.000000	0.000000	0.000000	3.965346	2.307200	-0.968704	1.000000	
[RToes]
#Fr	Tx	Ty	Tz	Rx	Ry	Rz	SF
180	0.000000	0.000000	0.000000	-0.527685	0.000000	0.000000	1.000000	
181	0.000000	0.000000	0.000000	-0.889467	0.000000	0.000000	1.000000	
182	0.000000	0.000000	0.000000	-1.365012	0.000000	0.000000	1.000000	
183	0.000000	0.000000	0.000000	-1.922145	0.000000	0.000000	1.000000	
184	0.000000	0.000000	0.000000	-2.505224	0.000000	0.000000	1.000000	
[LUpperLeg]
#Fr	Tx	Ty	Tz	Rx	Ry	Rz	SF
180	0.000000	0.000000	0.000000	-1.773395	2.952091	-0.559303	1.000000	
181	0.000000	0.000000	0.000000	-1.828287	3.028760	-0.575388	1.000000	
182	0.000000	0.000000	0.000000	-1.846271	3.037633	-0.570896	1.000000	
183	0.000000	0.000000	0.000000	-1.828643	2.974257	-0.543587	1.000000	
184	0.000000	0.000000	0.000000	-1.784762	2.856425	-0.497241	1.000000	
[LLowerLeg]
#Fr	Tx	Ty	Tz	Rx	Ry	Rz	SF
180	0.000000	0.000000	0.000000	0.262927	-0.000000	-0.000000	1.000000	
181	0.000000	0.000000	0.000000	0.188176	-0.000000	-0.000000	1.000000	
182	0.000000	0.000000	0.000000	0.071316	0.000000	0.000000	1.000000	
183	0.000000	0.000000	0.000000	-0.087455	0.000000	0.000000	1.000000	
184	0.000000	0.000000	0.000000	-0.280239	-0.000000	-0.000000	1.000000	
[LFoot]
#Fr	Tx	Ty	Tz	Rx	Ry	Rz	SF
180	0.000000	0.000000	0.000000	1.736058	-1.446351	1.444757	1.000000	
181	0.000000	0.000000	0.000000	1.796072	-1.464700	1.567579	1.000000	
182	0.000000	0.000000	0.000000	1.884497	-1.446367	1.645476	1.000000	
183	0.000000	0.000000	0.000000	2.007249	-1.392569	1.669041	1.000000	
184	0.000000	0.000000	0.000000	2.161667	-1.314181	1.649859	1.000000	
[LToes]
#Fr	Tx	Ty	Tz	Rx	Ry	Rz	SF
180	0.000000	0.000000	0.000000	-0.981498	-0.000000	-0.000000	1.000000	
181	0.000000	0.000000	0.000000	-0.849478	-0.000000	-0.000000	1.000000	
182	0.000000	0.000000	0.000000	-0.717378	-0.000000	-0.000000	1.000000	
183	0.000000	0.000000	0.000000	-0.594387	-0.000000	-0.000000	1.000000	
184	0.000000	0.000000	0.000000	-0.487948	-0.000000	-0.000000	1.000000	
